<?xml version="1.0" encoding="UTF-8"?><svg id="Layer_1" xmlns="http://www.w3.org/2000/svg" xmlns:xlink="http://www.w3.org/1999/xlink" viewBox="0 0 87.66 87.66"><defs><style>.cls-1{fill:url(#linear-gradient);fill-rule:evenodd;}</style><linearGradient id="linear-gradient" x1="0" y1="43.83" x2="87.66" y2="43.83" gradientUnits="userSpaceOnUse"><stop offset=".25" stop-color="#e7cf2c"/><stop offset=".5" stop-color="#157f44"/><stop offset=".75" stop-color="#231f20"/></linearGradient></defs><path class="cls-1" d="M43.83,0c11.62,0,22.77,4.62,30.99,12.84,8.22,8.22,12.84,19.37,12.84,30.99s-4.62,22.77-12.84,30.99-19.37,12.84-30.99,12.84-22.77-4.62-30.99-12.84S0,55.45,0,43.83,4.62,21.05,12.84,12.84C21.05,4.62,32.2,0,43.83,0ZM43.83,37.12c2.71,0,5.16,1.64,6.2,4.14,1.04,2.51.46,5.4-1.46,7.32-1.92,1.92-4.81,2.49-7.32,1.45s-4.14-3.49-4.14-6.21c0-1.78.71-3.49,1.97-4.75,1.26-1.26,2.97-1.96,4.75-1.96h0ZM58.68,17.39c4.52,2.61,8.27,6.36,10.87,10.88,2.61,4.52,3.98,9.64,3.98,14.85h-17.06c0-4.52-2.41-8.7-6.32-10.96l5.04-8.74,3.49-6.03ZM58.68,68.84h0c-9.2,5.3-20.52,5.3-29.71,0l3.47-6.03,5.04-8.74h0c3.92,2.26,8.74,2.26,12.66,0l5.04,8.74,3.49,6.02ZM14.12,43.12c0-5.21,1.37-10.34,3.98-14.85,2.61-4.52,6.36-8.26,10.87-10.87l3.47,6.02,5.04,8.74h0c-3.92,2.26-6.33,6.44-6.32,10.96H14.12h0ZM43.83,5.5c11.92,0,23.16,5.54,30.42,15,7.26,9.45,9.7,21.75,6.62,33.26-3.08,11.51-11.34,20.94-22.35,25.5-11.01,4.56-23.52,3.75-33.84-2.21-10.32-5.96-17.29-16.38-18.84-28.19-1.56-11.82,2.47-23.68,10.9-32.11,7.18-7.2,16.93-11.25,27.1-11.23h0ZM69.81,17.85c-8.08-8.08-19.45-11.94-30.78-10.45-11.32,1.49-21.32,8.16-27.03,18.06-5.71,9.89-6.5,21.88-2.13,32.43,4.37,10.56,13.4,18.48,24.43,21.43,11.03,2.96,22.82.62,31.88-6.34,9.06-6.95,14.38-17.73,14.38-29.15.01-9.75-3.86-19.1-10.76-25.98h0Z"/></svg>